<?xml version="1.0" standalone="no"?>
<!DOCTYPE svg PUBLIC "-//W3C//DTD SVG 20010904//EN"
 "http://www.w3.org/TR/2001/REC-SVG-20010904/DTD/svg10.dtd">
<svg version="1.0" xmlns="http://www.w3.org/2000/svg"
 width="2048.000000pt" height="2048.000000pt" viewBox="0 0 2048.000000 2048.000000"
 preserveAspectRatio="xMidYMid meet">

<g transform="translate(0.000000,2048.000000) scale(0.100000,-0.100000)"
fill="#000000" stroke="none">
<path d="M0 10240 l0 -10240 10240 0 10240 0 0 10240 0 10240 -10240 0 -10240
0 0 -10240z m8460 2936 c505 -75 884 -264 1192 -596 259 -279 425 -650 479
-1070 15 -121 16 -483 1 -530 -6 -19 -12 -53 -13 -75 -3 -62 -57 -280 -96
-385 -61 -164 -145 -314 -237 -425 -23 -27 -50 -63 -61 -80 -26 -42 -148 -167
-225 -230 -41 -34 -94 -65 -145 -85 -80 -32 -170 -81 -234 -128 -18 -14 -52
-35 -75 -46 -22 -12 -50 -27 -61 -33 -49 -29 -116 -55 -214 -82 -264 -73 -357
-82 -968 -88 l-523 -5 0 -1014 0 -1014 -72 6 c-40 3 -77 10 -82 15 -6 5 -28 8
-50 7 l-41 -1 45 -7 c25 -4 -118 -8 -317 -8 -317 -2 -363 0 -363 13 0 16 -14
17 -147 17 -35 0 -63 3 -63 7 0 5 -18 6 -41 4 -22 -3 -55 -2 -74 1 l-34 7 -1
2925 0 2925 1152 -4 c1019 -3 1166 -6 1268 -21z m5832 14 c4 0 -11 -30 -33
-67 -21 -37 -44 -83 -50 -103 -6 -19 -21 -51 -34 -70 -34 -53 -350 -557 -445
-710 -46 -74 -95 -149 -109 -166 -113 -138 -184 -247 -297 -459 -61 -116 -122
-221 -169 -295 -26 -41 -75 -118 -108 -170 -33 -52 -66 -99 -73 -103 -40 -24
-130 -165 -160 -249 -7 -21 -42 -85 -78 -141 -35 -56 -98 -156 -139 -222 -42
-66 -106 -155 -143 -198 -74 -86 -133 -180 -158 -253 -9 -27 -49 -100 -90
-164 -40 -63 -124 -196 -186 -295 -175 -279 -331 -526 -496 -784 l-151 -236
626 -6 c1154 -12 1804 -14 2037 -5 177 7 235 6 253 -4 l23 -12 -4 -591 -4
-592 -1319 -1 c-1226 0 -2117 8 -2380 23 -60 3 -128 6 -150 6 -344 -1 -589 -6
-692 -14 -71 -5 -239 -12 -375 -15 l-248 -5 51 78 c28 43 107 166 175 273 215
337 249 391 482 760 165 262 299 472 534 838 103 162 188 295 188 298 0 2 38
61 83 131 46 70 119 184 162 253 43 69 128 202 188 295 61 94 133 206 160 250
28 44 59 89 68 100 10 11 49 72 87 135 38 63 137 219 219 345 82 127 189 293
238 370 49 77 150 235 225 350 75 116 140 216 144 223 7 11 -126 13 -769 10
l-778 -3 -9 25 c-5 14 -20 67 -34 119 -13 52 -28 99 -33 105 -5 6 -48 88 -96
181 -121 236 -217 395 -342 565 -58 80 -109 147 -113 150 -4 3 -12 15 -19 27
l-12 23 2138 3 c1176 1 2154 1 2173 0 19 -1 38 -2 42 -3z m-8230 -5859 c-11
-7 -11 -9 2 -14 9 -4 16 -2 16 3 0 13 34 8 38 -5 1 -6 -15 -10 -35 -10 -28 0
-39 5 -41 18 -2 11 3 17 15 17 14 0 15 -2 5 -9z m171 -18 c-7 -2 -21 -2 -30 0
-10 3 -4 5 12 5 17 0 24 -2 18 -5z"/>
<path d="M7278 11673 c-1 -180 -2 -520 0 -755 l4 -428 456 0 c251 0 491 5 532
10 255 33 478 186 582 400 57 117 72 183 72 330 0 146 -17 234 -64 335 -76
163 -171 260 -335 340 -176 87 -182 88 -747 93 l-496 4 -4 -329z"/>
<path d="M6057 7646 c-4 -27 -7 -84 -7 -127 0 -64 3 -79 15 -79 16 0 19 65 6
190 l-6 65 -8 -49z"/>
<path d="M6430 7590 c0 -5 7 -10 15 -10 8 0 15 -6 15 -14 0 -8 5 -18 10 -21 6
-4 10 7 10 24 0 26 -4 31 -25 31 -14 0 -25 -4 -25 -10z"/>
<path d="M7251 7515 c1 -48 1 -49 9 -15 5 19 4 41 0 50 -6 10 -9 -1 -9 -35z"/>
<path d="M6320 7350 c0 -5 5 -10 11 -10 5 0 7 5 4 10 -3 6 -8 10 -11 10 -2 0
-4 -4 -4 -10z"/>
<path d="M6683 7323 c9 -2 23 -2 30 0 6 3 -1 5 -18 5 -16 0 -22 -2 -12 -5z"/>
</g>
</svg>
