<?xml version="1.0" standalone="no"?>
<!DOCTYPE svg PUBLIC "-//W3C//DTD SVG 20010904//EN"
 "http://www.w3.org/TR/2001/REC-SVG-20010904/DTD/svg10.dtd">
<svg version="1.0" xmlns="http://www.w3.org/2000/svg"
 width="1073.000000pt" height="871.000000pt" viewBox="0 0 1073.000000 871.000000"
 preserveAspectRatio="xMidYMid meet">

<g transform="translate(0.000000,871.000000) scale(0.100000,-0.100000)"
fill="#000000" stroke="none">
<path d="M0 4355 l0 -4355 5365 0 5365 0 0 4355 0 4355 -5365 0 -5365 0 0
-4355z m3790 2821 c422 -62 747 -201 1026 -437 355 -301 562 -688 639 -1194
21 -132 25 -510 7 -565 -6 -19 -14 -62 -17 -95 -7 -83 -50 -252 -92 -365 -63
-169 -143 -311 -243 -431 -28 -33 -50 -64 -50 -70 0 -15 -155 -172 -229 -233
-42 -35 -95 -66 -146 -86 -80 -32 -170 -81 -234 -128 -18 -14 -52 -35 -75 -46
-22 -12 -50 -27 -61 -33 -70 -42 -245 -98 -380 -123 -201 -37 -284 -42 -802
-47 l-523 -5 0 -1013 0 -1013 -32 3 c-18 2 -85 4 -148 6 -113 3 -114 3 -40 9
41 4 62 8 45 9 -49 5 -109 0 -120 -9 -6 -5 -143 -9 -304 -10 -258 0 -293 1
-287 15 4 12 -6 15 -62 17 -37 1 -76 1 -87 0 -11 0 -27 2 -35 5 -20 7 -102 4
-137 -6 l-28 -8 35 -11 35 -11 -35 3 c-38 3 -58 35 -23 37 16 1 16 2 1 6 -16
4 -17 193 -18 2929 l0 2925 1152 -4 c1019 -3 1166 -6 1268 -21z m5826 14 c8 0
-2 -25 -27 -67 -21 -37 -44 -83 -50 -101 -13 -38 -17 -45 -334 -552 -126 -201
-240 -379 -254 -396 -112 -137 -184 -247 -297 -459 -104 -195 -324 -553 -350
-568 -39 -23 -130 -165 -160 -249 -7 -21 -42 -85 -78 -141 -35 -56 -98 -156
-139 -222 -42 -66 -106 -155 -143 -198 -74 -86 -133 -180 -158 -253 -9 -27
-49 -100 -90 -164 -40 -63 -118 -187 -173 -275 -135 -215 -301 -477 -497 -785
l-162 -255 625 -6 c1153 -12 1804 -14 2037 -5 177 7 235 6 253 -4 l23 -12 -4
-591 -4 -592 -1314 -1 c-1215 0 -2116 8 -2385 23 -60 3 -126 6 -145 6 -352 -1
-597 -6 -694 -14 -67 -6 -234 -12 -373 -15 l-252 -4 50 78 c52 79 253 393 360
562 33 52 108 172 168 265 60 94 146 231 193 305 141 224 385 608 523 822 72
111 132 206 134 212 2 5 42 69 89 140 47 72 119 185 160 251 41 66 125 197
185 290 61 94 133 206 160 250 28 44 59 89 68 100 10 11 49 72 87 135 38 63
137 219 219 345 82 127 189 291 236 366 80 127 141 221 302 469 34 52 65 101
69 108 7 11 -127 13 -769 10 l-778 -3 -9 25 c-5 14 -20 67 -34 119 -13 52 -28
99 -33 105 -5 6 -48 88 -96 181 -123 240 -221 401 -362 593 l-123 167 2138 5
c1175 3 2150 4 2166 3 16 -2 34 -3 42 -3z"/>
<path d="M2608 5673 c-1 -181 -2 -520 0 -755 l4 -428 461 0 c254 0 494 5 532
10 255 37 474 188 577 400 57 117 72 183 72 330 0 142 -17 233 -60 328 -90
197 -231 319 -456 396 -113 38 -221 45 -700 46 l-426 0 -4 -327z"/>
<path d="M1387 1633 c-4 -37 -7 -96 -7 -130 0 -56 2 -62 20 -60 13 1 20 8 20
22 0 13 -3 16 -8 8 -4 -7 -8 37 -7 98 0 129 -9 160 -18 62z"/>
<path d="M1760 1596 c0 -26 41 -61 52 -44 13 22 9 38 -10 38 -10 0 -23 5 -30
12 -9 9 -12 8 -12 -6z"/>
<path d="M2588 1577 c-5 -10 -8 -44 -7 -75 l1 -57 9 45 c11 54 8 116 -3 87z"/>
<path d="M1673 1343 c9 -2 25 -2 35 0 9 3 1 5 -18 5 -19 0 -27 -2 -17 -5z"/>
<path d="M2016 1335 c-3 -9 0 -15 9 -15 16 0 20 16 6 24 -5 3 -11 -1 -15 -9z"/>
<path d="M1963 1323 c9 -2 23 -2 30 0 6 3 -1 5 -18 5 -16 0 -22 -2 -12 -5z"/>
</g>
</svg>
